<svg width="365" height="364" fill="none" xmlns="http://www.w3.org/2000/svg"><path d="M0 323.7v-12.1c2.9-11.8 11.8-19.3 19.9-27.3C53 251.2 86.1 218 119.2 185c2.3-2.3 2.3-3.4 0-5.7C83 143.2 47 107.1 10.8 71 6 66.2 2.4 60.8.8 54.1c-.1-.6-.1-1.2-.8-1.4V40.6c1.1-.3.9-1.3 1.1-2 1.6-5.9 4.7-10.8 9.1-15 4.5-4.4 8.9-8.9 13.3-13.3 13.9-13.7 33-13.7 46.8.1 36.3 36.3 72.6 72.5 108.8 108.9 2.2 2.2 3.3 2.4 5.7.1C220.5 83.5 256.3 47.8 292.1 12c1.1-1.1 2.2-2.2 3.3-3.2 12.7-11.7 31.4-11.6 43.8.2 3.7 3.5 7.2 7.2 10.8 10.8l3.8 3.8c13.7 13.8 13.8 33 0 46.8-36.3 36.4-72.7 72.8-109.2 109.1-2.3 2.3-2.1 3.3.1 5.4 35.9 35.7 71.6 71.5 107.4 107.3 1.4 1.4 2.9 2.8 4.2 4.4 10.5 12.2 10.4 30.1-.4 41.9-5.6 6.1-11.7 11.7-17.5 17.7-8.6 8.8-26.3 9.5-35.6 4.6-3.7-1.9-6.9-4.6-9.8-7.5-36-36-72.1-72.1-108-108.2-2.5-2.5-3.6-2.2-6 .1-35.5 35.7-71.2 71.3-106.8 106.9-1.3 1.3-2.7 2.6-4.1 4-10.1 10.2-31.7 10.6-41.7.6-9.9-9.9-22.2-18.1-26.1-32.8 0-.2-.2-.2-.3-.2z" fill="#fff"/></svg>