<svg width="80" height="53" fill="none" xmlns="http://www.w3.org/2000/svg"><path d="M79.999 40.965c-1.067 1.264-2.15 2.51-3.218 3.773a787.776 787.776 0 00-5.99 7.146c-.302.364-.461.402-.78.019a77.37 77.37 0 00-2.15-2.625c-.287-.325-.303-.517 0-.862 1.418-1.685 2.803-3.41 4.253-5.19h-.669c-5.05 0-10.083 0-15.133.018-.478 0-.796-.172-1.13-.574-3.744-4.54-7.52-9.042-11.263-13.563-.319-.383-.621-.555-1.083-.555-3.33.02-6.675 0-10.004.02-.462 0-.653-.078-.637-.71a56.59 56.59 0 000-3.678c0-.421.096-.555.446-.555 4.046.02 8.092.02 12.122 0 .367 0 .574.249.78.498 3.808 4.578 7.6 9.137 11.406 13.716.223.268.446.46.797.46 4.587-.02 9.175-.02 13.747-.02h.446L70.6 36.674c-.924-1.111-1.848-2.241-2.804-3.333-.27-.307-.302-.479-.016-.805a54.151 54.151 0 002.198-2.662c.32-.403.478-.326.781.019a2573.18 2573.18 0 008.825 10.535c.111.135.239.269.366.403.048.038.048.076.048.134zm0-29.615c-2.58 3.065-5.161 6.111-7.742 9.176-.493.575-1.003 1.15-1.465 1.743-.287.364-.462.44-.78.02a54.348 54.348 0 00-2.199-2.663c-.287-.326-.255-.498 0-.805 1.338-1.609 2.644-3.256 3.982-4.904-.127-.134-.366-.019-.573-.019-12.743 0-25.503-.019-38.246.02-.637 0-.797-.192-.765-.94a52.103 52.103 0 000-3.524c0-.402.096-.517.414-.498.478.038.956 0 1.434 0h38.103c-.191-.23-.303-.402-.43-.536-1.29-1.533-2.565-3.084-3.871-4.598-.35-.402-.319-.613.016-.977A50.284 50.284 0 0069.995.278c.303-.402.478-.344.78.02 2.932 3.467 5.847 6.934 8.762 10.401.143.173.303.326.462.498v.154zM17.938 28.553c-.557-.057-1.465.345-1.848-.153-.334-.44-.095-1.513-.095-2.318 0-.651.016-1.302 0-1.954-.016-.364.048-.536.398-.517 1.1.038 2.198.02 3.297 0 .335 0 .415.153.415.517a158.507 158.507 0 000 3.889c0 .383-.08.536-.415.517-.557 0-1.099.02-1.752.02zm8.3-19.615c.526 0 1.035.019 1.561 0 .303-.02.446.057.43.479a163.79 163.79 0 000 3.965c0 .402-.111.517-.43.498a90.593 90.593 0 00-3.297 0c-.287 0-.398-.096-.398-.46.015-1.34.015-2.7 0-4.042 0-.364.095-.46.382-.46.59.039 1.163.02 1.752.02zm-10.26 2.469c0-.651.016-1.303 0-1.954-.016-.364.048-.517.398-.517 1.083.038 2.166.019 3.25 0 .334 0 .478.096.462.536a159.074 159.074 0 000 3.908c0 .383-.08.536-.415.517a95.8 95.8 0 00-3.313 0c-.302 0-.398-.115-.382-.46.016-.69 0-1.36 0-2.03zm10.196 17.145h-1.689c-.238 0-.382-.02-.382-.383.016-1.38.016-2.759 0-4.119 0-.325.096-.421.35-.421a94.2 94.2 0 003.362 0c.286 0 .398.096.398.46a166.413 166.413 0 000 3.984c0 .421-.128.498-.446.498-.526-.038-1.067-.02-1.593-.02zM2.026 21.56c-.558-.057-1.466.345-1.848-.153-.334-.44-.095-1.513-.095-2.318 0-.65.016-1.302 0-1.953-.016-.364.047-.537.398-.518 1.099.039 2.198.02 3.297 0 .335 0 .414.154.414.518a158.209 158.209 0 000 3.888c0 .383-.08.536-.414.517-.557 0-1.099.02-1.752.02zm8.234 0H8.573c-.239 0-.382-.019-.382-.383.016-1.38.016-2.758 0-4.118 0-.326.096-.422.35-.422a94.2 94.2 0 003.362 0c.286 0 .398.096.398.46a166.413 166.413 0 000 3.984c0 .422-.128.498-.446.498-.526-.019-1.051-.019-1.593-.019z" fill="#fff"/></svg>