<svg width="40" height="61" fill="none" xmlns="http://www.w3.org/2000/svg"><path d="M20.285 51.088l-5.06 7.574c-.304.456-.615.907-.91 1.367-.452.706-1.09 1.054-1.92.92-.806-.133-1.275-.669-1.505-1.438-1.587-5.293-3.178-10.586-4.768-15.88-1.993-6.643-3.985-13.287-5.98-19.93-.387-1.29.026-2.266 1.12-2.622.433-.14.855-.075 1.279.052 7.996 2.398 15.993 4.795 23.99 7.195 3.963 1.188 7.922 2.389 11.888 3.564.815.242 1.393.689 1.53 1.546.141.887-.302 1.497-1.028 1.977-2.787 1.841-5.56 3.704-8.339 5.558-.14.094-.278.19-.56.38.217.15.413.246.559.391 2.869 2.859 5.734 5.722 8.597 8.585 1.097 1.098 1.096 2.017-.003 3.117a9326.428 9326.428 0 01-6.748 6.742c-1.095 1.092-2.012 1.085-3.119-.02-2.864-2.86-5.73-5.724-8.594-8.588-.132-.134-.249-.284-.43-.49zm-6.958 3.787c.146-.206.234-.324.316-.447 1.54-2.305 3.08-4.611 4.624-6.916.914-1.364 2.072-1.475 3.24-.31 3 2.993 6.002 5.985 8.987 8.995.323.327.481.29.779-.014a204.81 204.81 0 013.935-3.93c.308-.3.294-.442-.003-.74-3.038-3.01-6.059-6.036-9.082-9.06-1.073-1.074-.947-2.292.313-3.13 2.262-1.508 4.527-3.012 6.786-4.525.197-.131.445-.212.565-.45-.038-.022-.064-.045-.094-.054L5.155 25.752c-.175-.052-.38-.202-.515-.06-.104.108.032.311.08.472 2.863 9.54 5.721 19.082 8.607 28.711zM27.743 21h-.902c-.464-.147-.81-.456-1.146-.795-2.01-2.024-4.028-4.038-6.039-6.061-.127-.128-.187-.128-.314 0-2.01 2.023-4.03 4.037-6.04 6.061-.335.338-.68.648-1.144.795h-.985c-.163-.09-.355-.152-.486-.277-.633-.599-1.398-1.092-1.655-2.004-.002-.01-.021-.014-.032-.02v-.698c.17-.682.68-1.114 1.146-1.58 1.91-1.91 3.817-3.825 5.73-5.733.132-.132.133-.198 0-.33-2.087-2.083-4.167-4.172-6.253-6.256-.277-.277-.484-.59-.576-.974-.008-.032-.008-.07-.047-.084v-.698c.112-.149.122-.34.212-.5.174-.31.434-.543.682-.787.248-.245.473-.514.758-.72.738-.53 1.719-.428 2.405.26 2.05 2.05 4.099 4.104 6.147 6.156.296.295.296.295.584.007C21.841 4.704 23.894 2.645 25.95.59c.788-.788 1.896-.786 2.685-.004.185.183.368.366.55.551.183.185.379.358.52.579.484.753.365 1.685-.307 2.359a3190.512 3190.512 0 01-6.265 6.27c-.135.135-.153.2-.007.346 1.764 1.756 3.521 3.52 5.28 5.282.353.354.711.701 1.056 1.062.717.746.716 1.841.003 2.587-.198.208-.412.402-.606.613-.314.342-.665.624-1.116.763z" fill="#fff"/></svg>