<svg xmlns="http://www.w3.org/2000/svg" viewBox="0 0 309.68 309.71"><defs><style>.cls-1{fill:#fff}</style></defs><g id="Capa_2" data-name="Capa 2"><g id="Capa_1-2" data-name="Capa 1"><path class="cls-1" d="M309.66 241.59v58.49c0 6.69-2.9 9.61-9.55 9.62H190.63c-5.81 0-9.19-2.69-9.39-7.37a7.21 7.21 0 015.77-7.65 22.16 22.16 0 014.82-.41c32.87 0 65.74-.07 98.61.06 3.18 0 3.85-.84 3.84-3.91-.12-35.12-.08-70.24-.08-105.36 0-1.25-.06-2.51.06-3.74.48-4.79 3.72-7.84 8-7.64s7.34 3.46 7.35 8.3c.08 19.87.05 39.74.05 59.61zM0 241.5v-58.12a11.18 11.18 0 01.89-5.47 7.24 7.24 0 017.7-4.13 6.87 6.87 0 016.41 5.44 21.46 21.46 0 01.49 5.19c0 35.25.08 70.49-.08 105.74 0 3.56 1.07 4.18 4.34 4.17 32.62-.11 65.24-.07 97.86-.06a25.62 25.62 0 014.47.26 7.31 7.31 0 016.41 7.53 7.6 7.6 0 01-6.88 7.58 22.88 22.88 0 01-3 .07H10.22C2.7 309.7 0 307.05 0 299.61V241.5zM245.47 0h54.35c7 0 9.84 2.8 9.84 9.69v109.46c0 3.6-.81 6.67-4.28 8.45a7.42 7.42 0 01-10.67-4.6 21.46 21.46 0 01-.49-5.19c0-32.62-.07-65.23.07-97.84 0-3.46-.6-4.56-4.36-4.54-32.61.17-65.23.1-97.84.09a26.63 26.63 0 01-4.1-.19c-4.37-.7-7-3.84-6.74-8a7.53 7.53 0 017.61-7.25c3.5-.15 7 0 10.5 0zM64.19 0h55.48c5.26 0 8.5 2.75 8.75 7.22a7.2 7.2 0 01-6 7.82 23.57 23.57 0 01-4.83.38c-32.74 0-65.47.08-98.21-.08-3.43 0-4 1-4 4.15.12 32.73.08 65.47.08 98.21q0 10.6-7.6 10.73Q0 128.62 0 117.71V10.12C0 2.66 2.67 0 10.21 0h53.98z"/><path class="cls-1" d="M244.08 53.94c-11.19 0-22.38.05-33.57 0-5.34 0-8.57-3.46-8.16-8.45a6.93 6.93 0 015.34-6.49 15.8 15.8 0 014.46-.43h48.73c7.55 0 10.18 2.61 10.19 10.08v49.11c0 4-.9 7.54-5 9.17-5.19 2.06-10.32-1.74-10.38-7.7-.08-10 0-20 0-30v-3.64l-.89-.69a28.85 28.85 0 01-2.37 3.1q-31.12 31.17-62.26 62.32c-2.11 2.12-4.33 3.85-7.47 3.54a7.61 7.61 0 01-5.47-12.06 23.39 23.39 0 012.79-3q30.9-30.92 61.79-61.8a28 28 0 012.85-2.19zM54.09 244.73a31.73 31.73 0 012.44-3.17q31-31 62-62.06c2.09-2.1 4.29-3.91 7.42-3.66a7.61 7.61 0 015.55 12.23 25.32 25.32 0 01-2.57 2.72q-30.75 30.75-61.51 61.49c-1 1-2.05 1.76-3.15 2.69 1.3 1.25 2.46.75 3.48.76 10.13.05 20.25 0 30.37 0 5.1 0 8.35 3 8.43 7.51s-3 7.76-8.14 7.79q-26.06.18-52.11 0c-5.52 0-8.42-2.86-8.46-8.33q-.18-26.06 0-52.11c0-5.36 3.27-8.45 8-8.27 4.49.18 7.26 3.42 7.27 8.64v33z"/></g></g></svg>