<svg width="45" height="53" fill="none" xmlns="http://www.w3.org/2000/svg"><g clip-path="url(#clip0_33_350)" fill="#fff"><path d="M24.581 53h-4.42c-.025-.115-.12-.098-.205-.106a20.863 20.863 0 01-3.09-.554C5.896 49.547-1.28 39.138.191 28.104c.61-4.571 2.5-8.592 5.664-12.009.264-.286.202-.416-.038-.645-.892-.853-1.76-1.733-2.65-2.589-.2-.192-.245-.296-.014-.515.896-.85 1.776-1.716 2.64-2.598.243-.249.375-.239.614.001.954.964 1.931 1.907 2.895 2.861.156.153.256.261.51.088 3.017-2.039 6.34-3.297 9.985-3.703.322-.036.43-.164.425-.494-.021-1.225-.021-2.45 0-3.673.005-.328-.099-.399-.414-.393-1.157.018-2.314-.013-3.472.016-.453.011-.626-.071-.61-.571.042-1.293.014-2.586.014-3.88h13.472c0 1.294-.028 2.587.015 3.88.017.5-.158.582-.61.57-1.157-.03-2.316.001-3.473-.017-.315-.005-.42.065-.413.394.02 1.225.025 2.45-.002 3.673-.008.377.155.464.478.5 3.588.407 6.863 1.637 9.845 3.632.254.171.405.188.64-.051.949-.968 1.932-1.904 2.89-2.865.202-.204.323-.225.538-.008.88.89 1.772 1.77 2.678 2.634.222.211.198.32-.009.518-.903.867-1.779 1.763-2.687 2.625-.253.24-.22.363-.004.607 5.416 6.143 7.25 13.212 4.898 20.994-2.607 8.624-8.672 13.79-17.648 15.616-.588.119-1.2.08-1.767.298zm15.836-22.06c.098-9.574-7.947-17.6-17.73-17.69-9.951-.09-18.077 7.753-18.149 17.534-.071 9.704 7.752 17.47 17.357 17.767 10.185.318 18.512-7.729 18.522-17.61z"/><path d="M15.793 30.899c2.069 0 4.139-.012 6.208.011.398.004.485-.097.483-.48-.015-4.089 0-8.176-.02-12.264-.002-.442.11-.522.545-.505 6.302.238 11.391 4.766 12.663 10.494 1.524 6.868-2.948 13.979-9.935 15.629-7.542 1.78-14.889-2.785-16.488-10.259-.154-.723-.24-1.46-.254-2.204-.006-.337.084-.433.432-.43 2.122.015 4.244.008 6.366.008z"/></g><defs><clipPath id="clip0_33_350"><path fill="#fff" d="M0 0h45v53H0z"/></clipPath></defs></svg>