<svg width="24" height="40" fill="none" xmlns="http://www.w3.org/2000/svg"><path d="M3.164 40c-1.235-.4-1.984-1.385-2.757-2.299-.62-.734-.496-1.848.135-2.59.128-.15.265-.29.405-.428 4.887-4.792 9.773-9.587 14.67-14.369.262-.254.245-.374-.005-.618-4.924-4.812-9.84-9.633-14.754-14.453C-.01 4.393-.253 3.392.318 2.5A6.878 6.878 0 012.582.294c.807-.478 1.653-.349 2.41.213.148.109.281.238.412.366 5.914 5.793 11.825 11.586 17.736 17.38 1.148 1.124 1.148 2.383-.002 3.51-5.92 5.804-11.841 11.606-17.758 17.414-.368.362-.8.608-1.26.823h-.955z" fill="#fff"/></svg>