<svg width="56" height="56" fill="none" xmlns="http://www.w3.org/2000/svg"><path d="M35.14 45.105l-5.102 7.657c-.306.46-.62.917-.917 1.383-.456.713-1.1 1.065-1.937.929-.813-.133-1.286-.675-1.517-1.453-1.601-5.352-3.206-10.704-4.809-16.056l-6.031-20.153c-.39-1.304.027-2.29 1.13-2.648.436-.142.861-.077 1.289.052 8.063 2.425 16.128 4.848 24.192 7.275 3.996 1.201 7.988 2.415 11.987 3.604.822.244 1.405.696 1.543 1.563.143.897-.305 1.514-1.036 1.999-2.81 1.861-5.608 3.744-8.41 5.62l-.564.384c.219.151.416.248.563.395 2.893 2.89 5.782 5.785 8.67 8.68 1.106 1.11 1.105 2.04-.004 3.152a9108.826 9108.826 0 01-6.804 6.817c-1.104 1.104-2.029 1.096-3.145-.02-2.889-2.893-5.779-5.788-8.666-8.684-.133-.137-.25-.288-.432-.496zm-7.016 3.828c.147-.208.236-.327.319-.451 1.553-2.332 3.106-4.663 4.663-6.993.921-1.38 2.09-1.491 3.267-.314 3.025 3.026 6.053 6.051 9.062 9.095.326.33.486.294.786-.014a207.09 207.09 0 013.968-3.974c.31-.303.297-.447-.003-.747-3.064-3.044-6.11-6.104-9.158-9.163-1.082-1.085-.955-2.316.315-3.164 2.281-1.525 4.565-3.045 6.843-4.574.2-.133.449-.215.57-.455-.038-.023-.064-.046-.095-.055-9.593-2.88-19.187-5.758-28.78-8.639-.175-.052-.382-.203-.518-.061-.106.11.032.315.08.478 2.887 9.647 5.77 19.295 8.681 29.031zM14.663 4.591c0-.915-.005-1.832.002-2.748C14.67.783 15.453 0 16.492 0c1.04 0 1.83.784 1.834 1.84.006 1.833.006 3.664 0 5.496-.003 1.058-.793 1.845-1.829 1.846-1.036 0-1.825-.788-1.832-1.843-.008-.915-.002-1.83-.002-2.748zM4.564 18.364c-.914 0-1.828.007-2.742-.001-1.047-.01-1.827-.811-1.822-1.855.005-1.015.782-1.81 1.8-1.814 1.848-.01 3.694-.008 5.542 0 1.046.004 1.828.81 1.822 1.852a1.802 1.802 0 01-1.802 1.817c-.932.01-1.866.002-2.798.002zm.978-14.691c.507-.013.923.195 1.272.545C8.03 5.43 9.25 6.636 10.45 7.864c.755.772.75 1.878.03 2.612-.722.736-1.841.762-2.605.017a252.726 252.726 0 01-3.677-3.684c-.564-.574-.694-1.371-.385-2.056.304-.678.963-1.09 1.73-1.08zM29.33 5.7c.01.347-.191.768-.54 1.119-1.223 1.23-2.437 2.469-3.68 3.68-.763.742-1.891.707-2.606-.032a1.814 1.814 0 01.006-2.57 230.371 230.371 0 013.717-3.725c.574-.565 1.285-.666 2.004-.35.721.319 1.102.908 1.1 1.877zM10.998 23.897c.015.507-.182.93-.531 1.28-1.222 1.23-2.437 2.47-3.68 3.68-.764.746-1.888.714-2.606-.023-.703-.72-.726-1.826-.002-2.57a224.362 224.362 0 013.717-3.725c.573-.563 1.274-.653 2.006-.36.689.278 1.1.956 1.096 1.718z" fill="#fff"/></svg>