<svg width="72" height="60" fill="none" xmlns="http://www.w3.org/2000/svg"><path d="M59.678 53.805l-3.162 4.734c-.19.285-.385.566-.569.854-.283.441-.681.659-1.2.575-.504-.083-.797-.418-.94-.899l-2.98-9.924c-1.246-4.153-2.491-8.305-3.738-12.457-.242-.807.016-1.416.7-1.638.27-.088.534-.048.799.032l14.994 4.497c2.477.742 4.951 1.493 7.43 2.227.51.152.87.43.956.966.088.555-.189.936-.642 1.236-1.742 1.15-3.476 2.315-5.212 3.474l-.35.238c.135.093.258.153.349.244 1.793 1.786 3.584 3.576 5.373 5.365.686.686.685 1.26-.002 1.949-1.405 1.405-2.81 2.81-4.217 4.214-.684.682-1.257.677-1.95-.013-1.79-1.788-3.581-3.578-5.37-5.368-.083-.083-.156-.177-.27-.306zm-4.348 2.367c.09-.129.146-.203.197-.28.963-1.44 1.925-2.882 2.89-4.322.571-.852 1.295-.922 2.025-.194 1.875 1.87 3.751 3.74 5.617 5.622.202.205.3.182.487-.008.809-.83 1.628-1.65 2.459-2.457.193-.187.184-.276-.002-.462-1.899-1.881-3.787-3.773-5.676-5.663-.67-.671-.592-1.432.196-1.956 1.413-.943 2.829-1.883 4.24-2.828.124-.082.279-.133.354-.281-.024-.014-.04-.028-.059-.034l-17.836-5.34c-.11-.031-.237-.125-.322-.037-.065.068.02.195.05.295 1.79 5.963 3.576 11.927 5.38 17.945z" fill="#fff"/><path stroke="#fff" stroke-width="2.7" d="M1.35 1.35h45.3v33.3H1.35z"/></svg>