<svg width="50" height="27" fill="none" xmlns="http://www.w3.org/2000/svg"><path d="M50 4.44c-1.37 1.393-2.74 2.786-4.111 4.193-.235.239-.365.265-.6 0-.47-.53-.966-1.035-1.488-1.513-.274-.252-.3-.425 0-.65.17-.133.313-.292.561-.518H8.797c.26-.955.47-1.858.313-2.8-.026-.186.04-.239.196-.239h35.043c-.274-.278-.457-.478-.666-.677-.156-.146-.156-.238 0-.398.562-.557 1.123-1.101 1.658-1.685.235-.252.352-.16.535.04 1.253 1.287 2.506 2.561 3.759 3.835.117.12.235.212.365.319v.092zm0 17.3c-.914.796-1.71 1.711-2.571 2.56-.535.532-1.07 1.062-1.58 1.62-.195.212-.3.199-.496 0a38.181 38.181 0 00-1.618-1.646c-.196-.186-.196-.305 0-.464.209-.16.392-.345.6-.505-.026-.053-.039-.093-.065-.146h-.496c-11.407 0-22.814 0-34.22.014-.418 0-.601-.027-.47-.544.195-.73.117-1.487-.04-2.217-.052-.212 0-.265.196-.252.13.013.261 0 .392 0h34.69c-.065-.093-.078-.133-.104-.172-.196-.253-.64-.438-.6-.717.039-.265.404-.491.626-.717.365-.371.757-.73 1.096-1.128.21-.238.327-.199.522.014 1.37 1.42 2.754 2.813 4.138 4.22v.08zM6.252 3.79c0 1.75-1.41 3.184-3.133 3.184C1.383 6.974 0 5.528 0 3.736 0 1.998 1.449.551 3.145.564c1.723.027 3.107 1.46 3.107 3.225zM3.12 24.845c-1.763 0-3.12-1.42-3.12-3.238.013-1.752 1.436-3.159 3.158-3.145 1.723.013 3.094 1.446 3.094 3.224a3.13 3.13 0 01-3.133 3.159z" fill="#fff"/></svg>