<svg width="120" height="111" viewBox="0 0 120 111" fill="none" xmlns="http://www.w3.org/2000/svg">
<path d="M1.00039 4.5C1.40039 4.4 1.30039 4.1 1.40039 3.9C2.40039 1.6 4.10039 0.3 6.60039 0.1C7.00039 0 7.40039 0 7.90039 0C32.1004 0 56.3004 0 80.5004 0C83.2004 0 85.4004 0.9 86.7004 3.4C88.6004 7.1 86.1004 11.6 81.9004 12C81.2004 12 80.6004 12 80.0004 12C58.1004 12 36.3004 12 14.4004 12C13.3004 12 13.0004 12.2 13.0004 13.4C13.0004 41.3 13.0004 69.1 13.0004 97C13.0004 98.1 13.3004 98.3 14.3004 98.3C42.2004 98.3 70.0004 98.3 97.9004 98.3C99.0004 98.3 99.2004 98 99.2004 97C99.2004 82.6 99.2004 68.3 99.2004 53.9C99.2004 51.3 100.9 49.1 103.2 48.3C105.6 47.5 108.3 48.3 109.9 50.3C110.9 51.5 111.2 52.9 111.2 54.4C111.2 70.9 111.2 87.4 111.2 104C111.2 107.7 108.9 110.1 105.2 110.3C104.7 110.3 104.3 110.3 103.8 110.3C72.3004 110.3 40.7004 110.3 9.20039 110.3C5.40039 110.3 2.40039 109.5 0.900391 105.8C1.00039 72 1.00039 38.3 1.00039 4.5Z" fill="white"/>
<path d="M26.5003 36.8C29.0003 36.8 30.4003 37.7 31.7003 39.1C39.5003 46.9 47.3003 54.7 55.1003 62.5C55.8003 63.2 56.1003 63.2 56.8003 62.5C74.2003 45 91.7003 27.5 109.1 10.1C111.5 7.7 114.1 7.2 116.7 8.5C120 10.3 120.9 14.6 118.5 17.5C118.2 17.9 117.8 18.3 117.5 18.6C98.7003 37.5 79.8003 56.4 60.9003 75.3C57.6003 78.6 54.3003 78.6 51.0003 75.3C41.7003 66 32.4003 56.7 23.1003 47.4C21.0003 45.3 20.3003 42.7 21.5003 40.3C22.6003 38 24.5003 36.8 26.5003 36.8Z" fill="white"/>
</svg>
