<svg width="54" height="44" viewBox="0 0 54 44" fill="none" xmlns="http://www.w3.org/2000/svg">
<path d="M12.8464 21.9341C12.8464 29.0284 12.8464 36.1395 12.8631 43.2338C12.8631 43.7667 12.7465 43.8666 12.1969 43.9499C10.3983 44.1997 9.16599 43.5003 7.96694 42.1846C5.65212 39.62 3.17075 37.2053 0.722699 34.7905C0.189789 34.2576 -0.0433593 33.7414 0.006601 33.0086C0.0732148 31.9095 0.0232544 31.9095 1.10573 31.9095C2.98757 31.9095 4.88606 31.8928 6.7679 31.9261C7.25085 31.9261 7.36742 31.8096 7.36742 31.3266C7.35077 21.1347 7.36742 10.9428 7.33411 0.75089C7.33411 0.168019 7.43403 -0.0151685 8.06686 0.00148493C9.41579 0.0514453 10.7647 0.0514453 12.1136 0.00148493C12.6632 -0.0151685 12.8464 0.101406 12.8464 0.700929C12.8464 7.76199 12.8464 14.8397 12.8464 21.9341Z" fill="white"/>
<path d="M38.0928 0.217947C43.1388 0.217947 48.1848 0.234601 53.2308 0.201294C53.747 0.201294 53.8803 0.317868 53.8636 0.834125C53.8303 2.28297 53.847 3.74848 53.8636 5.19733C53.8636 5.5637 53.8303 5.73024 53.3807 5.73024C43.1721 5.71358 32.9469 5.71358 22.7383 5.73024C22.3386 5.73024 22.2054 5.64697 22.2221 5.23063C22.2554 3.73182 22.2554 2.23301 22.2221 0.750857C22.2054 0.284561 22.372 0.217947 22.7883 0.217947C27.8842 0.217947 32.9802 0.217947 38.0928 0.217947Z" fill="white"/>
<path d="M38.043 24.9483C32.997 24.9483 27.951 24.9317 22.905 24.965C22.3055 24.965 22.1889 24.7818 22.2056 24.2489C22.2389 22.8167 22.2389 21.3845 22.2056 19.9523C22.2056 19.536 22.3222 19.436 22.7218 19.436C32.9304 19.4527 43.1556 19.4527 53.3642 19.436C53.8138 19.436 53.8638 19.5859 53.8471 19.9689C53.8305 21.4511 53.8138 22.9166 53.8471 24.3988C53.8638 24.8651 53.7472 24.9816 53.2809 24.9816C48.2016 24.9483 43.1223 24.9483 38.043 24.9483Z" fill="white"/>
<path d="M38.043 43.75C32.9804 43.75 27.9177 43.7334 22.8551 43.7667C22.3388 43.7667 22.189 43.6501 22.2056 43.1339C22.2389 41.7017 22.2389 40.2695 22.2056 38.8373C22.189 38.371 22.3055 38.2544 22.7885 38.2544C29.3666 38.271 35.9447 38.271 42.5228 38.271C46.1199 38.271 49.7004 38.2877 53.2976 38.2544C53.7639 38.2544 53.8804 38.371 53.8638 38.8373C53.8305 40.2695 53.8305 41.7017 53.8638 43.1339C53.8804 43.6335 53.7639 43.7833 53.231 43.7833C48.1683 43.7334 43.1057 43.75 38.043 43.75Z" fill="white"/>
</svg>
