<svg width="41" height="39" viewBox="0 0 41 39" fill="none" xmlns="http://www.w3.org/2000/svg">
<path d="M40.7424 19.8962C40.3644 20.9011 39.6082 21.2195 38.5735 21.2195C31.7482 21.1996 24.9229 21.2096 18.0976 21.1996C17.6897 21.1996 17.5006 21.3091 17.3613 21.6871C16.4758 24.0053 14.1278 25.5873 11.6603 25.4281C9.13319 25.259 7.37214 23.9556 6.3971 21.6175C6.26776 21.319 6.14837 21.1996 5.81009 21.1996C4.60621 21.2195 3.39238 21.1797 2.1885 21.2195C1.15376 21.2494 0.397609 20.9011 0.0195312 19.8962C0.0195312 19.6276 0.0195312 19.3689 0.0195312 19.1003C0.397609 18.0954 1.15376 17.7472 2.1885 17.777C3.40233 17.8168 4.62611 17.777 5.84988 17.7969C6.12847 17.7969 6.26776 17.7273 6.3772 17.4586C7.1632 15.3991 8.64567 14.1156 10.8047 13.6779C12.9737 13.25 14.8143 13.9564 16.3167 15.5583C16.8141 16.0956 17.2022 16.7124 17.431 17.4089C17.5305 17.7273 17.6897 17.787 17.9981 17.787C24.8632 17.777 31.7283 17.787 38.5934 17.7671C39.6281 17.7671 40.3843 18.0854 40.7623 19.0903C40.7424 19.3689 40.7424 19.6276 40.7424 19.8962ZM9.37197 19.5082C9.38192 20.8912 10.5162 22.0354 11.8991 22.0354C13.292 22.0354 14.4362 20.8713 14.4163 19.4684C14.4064 18.0954 13.2224 16.9313 11.8693 16.9612C10.4764 16.991 9.36202 18.1252 9.37197 19.5082Z" fill="white"/>
<path d="M0.00994941 32.6812C0.368128 31.6863 1.08449 31.3281 2.12917 31.3281C9.02411 31.348 15.9191 31.338 22.804 31.348C23.0926 31.348 23.2319 31.2783 23.3413 30.9898C24.3163 28.4527 26.6644 26.9006 29.3607 27.1493C31.6889 27.3583 33.3604 28.6218 34.2956 30.7809C34.4747 31.1987 34.6538 31.3778 35.1314 31.3579C36.2954 31.3181 37.4695 31.3679 38.6335 31.338C39.6683 31.3082 40.3946 31.6863 40.7428 32.6912C40.7428 32.9598 40.7428 33.2185 40.7428 33.4871C40.3448 34.4721 39.5986 34.8203 38.5539 34.7706C37.36 34.7109 36.1661 34.7706 34.9722 34.7507C34.614 34.7407 34.4846 34.8601 34.3553 35.1785C33.6688 36.9495 32.4152 38.1534 30.6044 38.7205C27.6196 39.6657 24.4954 38.1434 23.3612 35.2183C23.2219 34.8502 23.0428 34.7507 22.6548 34.7507C15.74 34.7606 8.81517 34.7606 1.90034 34.7606C1.6914 34.7606 1.48246 34.7706 1.27352 34.7109C0.606914 34.5417 0.268634 34.0542 0 33.4871C0.00994941 33.2085 0.00994941 32.9399 0.00994941 32.6812ZM31.3904 33.0394C31.3904 31.6465 30.2561 30.5321 28.8632 30.5321C27.4703 30.5321 26.3361 31.6564 26.3361 33.0493C26.3361 34.4621 27.4803 35.5964 28.8831 35.5765C30.2959 35.5466 31.3904 34.4323 31.3904 33.0394Z" fill="white"/>
<path d="M40.7426 6.31528C40.3845 7.31022 39.6681 7.69825 38.6334 7.6684C37.3897 7.6286 36.146 7.6684 34.8924 7.6485C34.6039 7.6485 34.4845 7.73805 34.385 8.00668C33.5194 10.2254 31.8678 11.5387 29.5197 11.8372C27.5597 12.0859 25.8782 11.3895 24.5251 9.95677C23.9978 9.3996 23.5799 8.74294 23.3411 8.00668C23.2416 7.7082 23.0924 7.6485 22.8039 7.6485C15.9089 7.65845 9.01398 7.6485 2.12899 7.6684C1.0843 7.6684 0.367944 7.31022 0.00976562 6.31528C0.00976562 6.04665 0.00976562 5.78796 0.00976562 5.51933C0.407742 4.53434 1.15395 4.22591 2.19863 4.23586C9.06373 4.26571 15.9288 4.24581 22.7939 4.25576C23.0824 4.25576 23.2516 4.19606 23.3312 3.89758C23.4506 3.4598 23.6894 3.08173 23.9281 2.6937C25.0922 0.793363 27.689 -0.350818 29.858 0.0969049C32.0767 0.554578 33.6089 1.8281 34.4148 3.94732C34.5044 4.17616 34.6138 4.26571 34.8625 4.26571C36.2256 4.25576 37.5887 4.25576 38.9617 4.25576C39.1308 4.25576 39.3 4.25576 39.4691 4.3055C40.1357 4.47464 40.474 4.96216 40.7426 5.52928C40.7426 5.78796 40.7426 6.04665 40.7426 6.31528ZM28.9227 3.42996C27.5696 3.39016 26.3956 4.47464 26.3458 5.79791C26.2961 7.23063 27.3706 8.42456 28.7536 8.46435C30.2062 8.50415 31.3504 7.42962 31.3902 5.98695C31.42 4.60399 30.3356 3.4797 28.9227 3.42996Z" fill="white"/>
</svg>
