<svg width="391" height="233" viewBox="0 0 391 233" fill="none" xmlns="http://www.w3.org/2000/svg">
<path d="M0 111.822C23.4 78.4216 52.4 50.8216 87.6 30.0216C113.2 14.9216 140.7 5.12161 170.1 1.52161C212.7 -3.57839 253 4.22161 291.1 23.7216C329.8 43.6216 360.7 72.4216 386.9 106.722C391.5 112.722 391.4 120.022 386.8 126.122C360.6 160.422 329.6 189.222 290.9 209.022C267.3 221.122 242.3 228.822 215.8 231.522C164.1 236.722 117.3 223.022 74.5 194.522C46.7 176.022 23.6 152.722 3.5 126.222C2.1 124.322 1.1 122.222 0 120.122C0 117.422 0 114.622 0 111.822ZM194.9 198.122C239 199.122 278.4 160.922 277 113.722C275.7 70.1216 238.8 33.2216 192.5 34.5216C150.3 35.7216 112.2 71.9216 113.3 118.722C114.1 162.022 151.1 198.522 194.9 198.122Z" fill="white"/>
<path d="M195.3 72.2216C219.7 72.2216 239.3 91.8216 239.3 116.122C239.3 140.722 219.5 160.622 195 160.622C170.7 160.622 151 140.922 151 116.622C150.9 92.0216 170.7 72.2216 195.3 72.2216Z" fill="white"/>
</svg>
